<svg xmlns="http://www.w3.org/2000/svg" viewBox="0 0 512 512"><defs><style>.cls-1{fill:#e2ffe2;}.cls-2{fill:#00af80;}</style></defs><title>favicon-new</title><g id="Layer_2" data-name="Layer 2"><g id="bold"><path class="cls-1" d="M416,512H96A96,96,0,0,1,0,416V96A96,96,0,0,1,96,0H416a96,96,0,0,1,96,96V416A96,96,0,0,1,416,512Z"/><path class="cls-2" d="M389.34,36H122.69C90.3,36,64,58.61,64,86.41V425.57C64,453.39,90.3,476,122.66,476H389.31C421.7,476,448,453.39,448,425.59V86.41C448,58.61,421.7,36,389.34,36ZM113.79,106.66H263.13c15.7,0,28.45,9.56,28.45,21.34s-12.75,21.34-28.45,21.34H113.79c-15.74,0-28.46-9.56-28.46-21.34S98.05,106.66,113.79,106.66ZM398.21,405.34H113.75c-15.7,0-28.42-9.56-28.42-21.34s12.76-21.34,28.46-21.34H398.25c15.7,0,28.42,9.56,28.42,21.34S414,405.34,398.21,405.34Zm0-85.34H113.75c-15.7,0-28.42-9.54-28.42-21.34s12.76-21.35,28.46-21.35H398.25c15.7,0,28.46,9.57,28.46,21.35S414,320,398.21,320Zm0-85.34H113.75c-15.7,0-28.46-9.57-28.46-21.35S98.05,192,113.79,192H398.25c15.7,0,28.42,9.54,28.42,21.34S414,234.66,398.21,234.66Z"/></g></g></svg>